<svg xmlns="http://www.w3.org/2000/svg" viewBox="0 0 528.62 176.69" fill="currentColor" role="img" aria-label="Nodo">
<path fill-rule="nonzero" d="M 6.00 167.09 L 6.00 52.35 L 35.92 52.35 L 35.92 66.75 L 37.50 66.75 C 40.95 61.20 45.71 56.81 51.79 53.59 C 57.86 50.36 64.72 48.75 72.37 48.75 C 86.17 48.75 96.67 52.99 103.87 61.46 C 111.07 69.94 114.67 81.37 114.67 95.77 L 114.67 167.09 L 82.95 167.09 L 82.95 101.17 C 82.95 93.97 81.26 88.35 77.89 84.30 C 74.51 80.25 69.52 78.22 62.92 78.22 C 57.67 78.22 53.17 79.69 49.42 82.61 C 45.67 85.53 42.79 89.40 40.76 94.20 C 38.74 99.00 37.72 104.40 37.72 110.40 L 37.72 167.09 L 6.00 167.09 Z"/>
<path fill-rule="nonzero" d="M 209.63 126.71 C 206.86 131.43 203.26 135.03 198.83 137.51 C 194.41 139.98 189.50 141.22 184.10 141.22 C 178.84 141.22 173.93 139.98 169.36 137.51 C 164.78 135.03 161.11 131.43 158.33 126.71 C 155.56 121.98 154.17 116.32 154.17 109.72 C 154.17 103.12 155.56 97.50 158.33 92.85 C 161.11 88.20 164.78 84.60 169.36 82.05 C 173.93 79.50 178.84 78.22 184.10 78.22 C 189.50 78.22 194.41 79.50 198.83 82.05 C 203.26 84.60 206.86 88.20 209.63 92.85 C 212.41 97.50 213.80 103.12 213.80 109.72 C 213.80 116.32 212.41 121.98 209.63 126.71 Z M 237.64 78.67 C 232.39 69.52 225.16 62.25 215.93 56.85 C 206.71 51.45 196.10 48.75 184.10 48.75 C 172.09 48.75 161.45 51.41 152.15 56.74 C 142.84 62.06 135.57 69.33 130.32 78.56 C 125.07 87.78 122.45 98.17 122.45 109.72 C 122.45 121.27 125.07 131.66 130.32 140.88 C 135.57 150.11 142.88 157.39 152.26 162.71 C 161.63 168.03 172.25 170.69 184.10 170.69 C 195.94 170.69 206.52 168.03 215.82 162.71 C 225.12 157.39 232.39 150.11 237.64 140.88 C 242.89 131.66 245.52 121.27 245.52 109.72 C 245.52 98.17 242.89 87.82 237.64 78.67 Z"/>
<path fill-rule="nonzero" d="M 469.38 126.71 C 466.61 131.43 463.00 135.03 458.58 137.51 C 454.16 139.98 449.25 141.22 443.85 141.22 C 438.59 141.22 433.68 139.98 429.11 137.51 C 424.53 135.03 420.86 131.43 418.08 126.71 C 415.31 121.98 413.92 116.32 413.92 109.72 C 413.92 103.12 415.31 97.50 418.08 92.85 C 420.86 88.20 424.53 84.60 429.11 82.05 C 433.68 79.50 438.59 78.22 443.85 78.22 C 449.25 78.22 454.16 79.50 458.58 82.05 C 463.00 84.60 466.61 88.20 469.38 92.85 C 472.16 97.50 473.54 103.12 473.54 109.72 C 473.54 116.32 472.16 121.98 469.38 126.71 Z M 497.39 78.67 C 492.14 69.52 484.91 62.25 475.68 56.85 C 466.46 51.45 455.85 48.75 443.85 48.75 C 431.84 48.75 421.20 51.41 411.90 56.74 C 402.59 62.06 395.32 69.33 390.07 78.56 C 384.82 87.78 382.20 98.17 382.20 109.72 C 382.20 121.27 384.82 131.66 390.07 140.88 C 395.32 150.11 402.63 157.39 412.01 162.71 C 421.38 168.03 432.00 170.69 443.85 170.69 C 455.69 170.69 466.27 168.03 475.57 162.71 C 484.87 157.39 492.14 150.11 497.39 140.88 C 502.64 131.66 505.27 121.27 505.27 109.72 C 505.27 98.17 502.64 87.82 497.39 78.67 Z"/>
<path fill-rule="nonzero" d="M 335.61 126.71 C 332.83 131.43 329.23 135.03 324.81 137.51 C 320.38 139.98 315.47 141.22 310.07 141.22 C 304.82 141.22 299.91 139.98 295.34 137.51 C 290.76 135.03 287.08 131.43 284.31 126.71 C 281.53 121.98 280.15 116.32 280.15 109.72 C 280.15 103.12 281.53 97.50 284.31 92.85 C 287.08 88.20 290.76 84.60 295.34 82.05 C 299.91 79.50 304.82 78.22 310.07 78.22 C 315.47 78.22 320.38 79.50 324.81 82.05 C 329.23 84.60 332.83 88.20 335.61 92.85 C 338.38 97.50 339.77 103.12 339.77 109.72 C 339.77 116.32 338.38 121.98 335.61 126.71 Z M 342.41 6.00 L 342.41 50.10 L 342.52 65.17 L 342.19 65.17 C 340.39 62.17 337.87 59.43 334.65 56.96 C 331.42 54.48 327.64 52.50 323.29 51.00 C 318.94 49.50 313.99 48.75 308.44 48.75 C 298.24 48.75 288.94 51.33 280.54 56.51 C 272.14 61.69 265.50 68.85 260.63 78.00 C 255.75 87.15 253.32 97.72 253.32 109.72 C 253.32 121.72 255.75 132.30 260.63 141.44 C 265.50 150.59 272.06 157.76 280.31 162.93 C 288.56 168.11 297.71 170.69 307.76 170.69 C 313.61 170.69 318.75 169.91 323.18 168.33 C 327.60 166.76 331.42 164.73 334.65 162.26 C 337.87 159.78 340.39 157.05 342.19 154.04 L 344.21 154.04 L 344.21 167.09 L 373.91 167.09 L 373.91 6.00 L 342.41 6.00 Z"/>
<path fill-rule="nonzero" d="M 512.89 57.00 L 514.01 57.00 C 514.55 57.00 514.95 56.86 515.22 56.56 C 515.49 56.27 515.62 55.91 515.62 55.46 C 515.62 55.02 515.49 54.67 515.22 54.41 C 514.95 54.16 514.55 54.03 514.01 54.03 L 512.89 54.03 L 512.89 57.00 Z M 511.00 62.46 L 511.00 52.39 L 514.36 52.39 C 515.41 52.39 516.20 52.67 516.72 53.22 C 517.25 53.78 517.51 54.44 517.51 55.18 C 517.51 55.77 517.41 56.27 517.21 56.69 C 517.01 57.11 516.65 57.43 516.11 57.67 L 516.11 57.88 C 516.53 57.90 516.83 58.06 517.02 58.37 C 517.21 58.67 517.30 58.98 517.30 59.31 L 517.30 62.46 L 515.41 62.46 L 515.41 59.56 C 515.41 59.30 515.34 59.09 515.18 58.93 C 515.03 58.76 514.82 58.68 514.54 58.68 L 512.89 58.68 L 512.89 62.46 L 511.00 62.46 Z M 513.94 64.42 C 515.25 64.42 516.43 64.10 517.47 63.47 C 518.52 62.84 519.36 62.00 519.99 60.94 C 520.62 59.88 520.94 58.70 520.94 57.42 C 520.94 56.12 520.62 54.94 519.99 53.89 C 519.36 52.84 518.52 52.00 517.47 51.37 C 516.43 50.74 515.25 50.43 513.94 50.43 C 512.66 50.43 511.49 50.74 510.43 51.37 C 509.37 52.00 508.52 52.84 507.89 53.89 C 507.26 54.94 506.95 56.12 506.95 57.42 C 506.95 58.70 507.26 59.88 507.89 60.94 C 508.52 62.00 509.37 62.84 510.43 63.47 C 511.49 64.10 512.66 64.42 513.94 64.42 Z M 513.94 66.09 C 512.33 66.09 510.88 65.71 509.57 64.92 C 508.27 64.14 507.22 63.09 506.44 61.78 C 505.66 60.46 505.27 59.01 505.27 57.42 C 505.27 55.81 505.66 54.36 506.44 53.05 C 507.22 51.75 508.27 50.70 509.57 49.92 C 510.88 49.14 512.33 48.75 513.94 48.75 C 515.55 48.75 517.01 49.14 518.31 49.92 C 519.62 50.70 520.66 51.75 521.44 53.05 C 522.23 54.36 522.62 55.81 522.62 57.42 C 522.62 59.01 522.23 60.46 521.44 61.78 C 520.66 63.09 519.62 64.14 518.31 64.92 C 517.01 65.71 515.55 66.09 513.94 66.09 Z"/>
</svg>
